# xmcd
#
# Track frame offsets: 
#        150
#        25564
#        66735
#        89672
#        122901
#        152525
#        173402
#        197408
#        209496
#        236421
#
# Disc length: 4000 seconds
#
# Revision: 0
# Processed by: cddbd v1.5.2PL0 Copyright (c) Steve Scherf et al.
# Submitted via: ExactAudioCopy v0.99pb5
#
DISCID=810f9e0a
DTITLE=Canned Heat - Live At Montreux 1973
DYEAR=1973
DGENRE=Blues
TTITLE0=On The Road Again
TTITLE1=Please Mr. Nixon
TTITLE2=Worried Life Blues
TTITLE3=About My Ooh Poo Pa Doo
TTITLE4=Funky
TTITLE5=Night Time Is The Right Time
TTITLE6=Let's Work Together
TTITLE7=Rock And Roll Music
TTITLE8=Lookin' For My Rainbow
TTITLE9=Shake 'N' Boogie
EXTD=
EXTT0=
EXTT1=
EXTT2=
EXTT3=
EXTT4=
EXTT5=
EXTT6=
EXTT7=
EXTT8=
EXTT9=
PLAYORDER=
